# xmcd
#
# Track frame offsets:
#	150
#	11152
#	26415
#	39775
#	50622
#	60225
#	68985
#	79440
#	88747
#	99265
#	110540
#	121260
#	135217
#	147442
#	163205
#	178335
#
# Disc length: 2531 seconds
#
# Revision: 1
# Processed by: cddbd v1.5.2PL0 Copyright (c) Steve Scherf et al.
# Submitted via: audiograbber 1.83.01
#
DISCID=d509e110
DTITLE=Various Artist - Champagne Country Volume 1
DYEAR=1900
DGENRE=Country
TTITLE0=Guy Mitchell - Singin' The Blues
TTITLE1=Jeannie Pruitt - Temporarily Yours
TTITLE2=Patti Page - Tennessee Waltz
TTITLE3=Jerry Wallace - Primrose Lane
TTITLE4=Ned Miller - From a Jack to a King
TTITLE5=Del Reeves - Good Time Charlie
TTITLE6=Faron Young - If You Ain't Lovin'
TTITLE7=Carl Dobkins - My Heart is an Open Book
TTITLE8=Jimmy Rodgers - Kisses Sweeter Than Wine
TTITLE9=Willie Nelson - The Nightlife
TTITLE10=Ferlin Huskey - Wings of a Dove
TTITLE11=George Jones  - A Good Year For Roses
TTITLE12=Tex Ritter - High Noon
TTITLE13=Ronnie Milsap - If You Go Away
TTITLE14=Frankie Lane - That Lucky Old Sun
TTITLE15=Roger Miller - Little Green Apples
EXTD=American Jukebox Classics
EXTT0=
EXTT1=
EXTT2=
EXTT3=
EXTT4=
EXTT5=
EXTT6=
EXTT7=
EXTT8=
EXTT9=
EXTT10=
EXTT11=
EXTT12=
EXTT13=
EXTT14=
EXTT15=
PLAYORDER=
